<svg xmlns="http://www.w3.org/2000/svg" viewBox="0 0 720 582" role="img" aria-label="Atmospheric white lion beside a waterfall">
  <defs>
    <linearGradient id="night" x1="0" y1="0" x2="0" y2="1"><stop stop-color="#111827"/><stop offset=".52" stop-color="#071019"/><stop offset="1" stop-color="#010103"/></linearGradient>
    <linearGradient id="fall" x1="0" y1="0" x2="0" y2="1"><stop stop-color="#fff" stop-opacity=".78"/><stop offset=".7" stop-color="#bde7ff" stop-opacity=".28"/><stop offset="1" stop-color="#010103" stop-opacity="0"/></linearGradient>
    <radialGradient id="mane"><stop stop-color="#fff" stop-opacity=".9"/><stop offset=".65" stop-color="#d9e4ee" stop-opacity=".5"/><stop offset="1" stop-color="#9aa9b8" stop-opacity="0"/></radialGradient>
    <filter id="soft"><feGaussianBlur stdDeviation="8"/></filter>
    <filter id="glow"><feGaussianBlur stdDeviation="3"/></filter>
  </defs>
  <rect width="720" height="582" fill="url(#night)"/>
  <g opacity=".58">
    <path d="M500 0h118c-18 85-9 151-39 226-26 65-40 150-23 235H430c24-80 39-157 31-232-8-82 17-151 39-229Z" fill="url(#fall)" filter="url(#soft)"/>
    <path d="M540 0c-16 105 2 158-25 250-17 56-15 117-6 181" fill="none" stroke="#eefaff" stroke-opacity=".55" stroke-width="18" filter="url(#glow)"/>
  </g>
  <g transform="translate(95 190)" opacity=".72">
    <ellipse cx="155" cy="140" rx="142" ry="145" fill="url(#mane)"/>
    <path d="M94 73 65 22l58 35M210 58l55-38-23 64" fill="#eef2f5" stroke="#cbd5df" stroke-width="4"/>
    <path d="M91 77c28-39 101-45 133 0 22 31 21 102-4 138-28 39-91 44-124 5-29-34-31-109-5-143Z" fill="#eff4f7"/>
    <ellipse cx="126" cy="122" rx="10" ry="7" fill="#101820"/><ellipse cx="193" cy="122" rx="10" ry="7" fill="#101820"/>
    <path d="M151 151c8-7 17-7 25 0-3 13-7 18-13 18s-10-5-12-18Z" fill="#26323b"/>
    <path d="M163 168c-5 17-22 24-34 15M163 168c5 17 22 24 34 15" fill="none" stroke="#8896a3" stroke-width="4" stroke-linecap="round"/>
    <path d="M80 118 17 96M82 139 7 139M85 157 22 181M225 118l69-24M226 139h79M222 158l66 25" stroke="#dce6ed" stroke-opacity=".65" stroke-width="3"/>
  </g>
  <ellipse cx="370" cy="500" rx="330" ry="72" fill="#020509" opacity=".9"/>
  <rect y="470" width="720" height="112" fill="url(#night)" opacity=".82"/>
</svg>
